<svg width="24" height="24" viewBox="0 0 24 24" fill="none" xmlns="http://www.w3.org/2000/svg">
<path d="M7.84897 7.73501C7.99497 7.88101 7.99497 8.11901 7.84897 8.26501C7.70297 8.41101 7.46497 8.41101 7.31897 8.26501C7.17297 8.11901 7.17297 7.88101 7.31897 7.73501C7.46497 7.58801 7.70197 7.58801 7.84897 7.73501Z" stroke="#5B6975" stroke-width="1.5" stroke-linecap="round" stroke-linejoin="round"/>
<path d="M12.265 7.73501C12.411 7.88101 12.411 8.11901 12.265 8.26501C12.119 8.41101 11.881 8.41101 11.735 8.26501C11.589 8.11901 11.589 7.88101 11.735 7.73501C11.881 7.58801 12.119 7.58801 12.265 7.73501Z" stroke="#5B6975" stroke-width="1.5" stroke-linecap="round" stroke-linejoin="round"/>
<path d="M16.682 7.73501C16.828 7.88101 16.828 8.11901 16.682 8.26501C16.536 8.41101 16.298 8.41101 16.152 8.26501C16.006 8.11901 16.006 7.88101 16.152 7.73501C16.298 7.58801 16.535 7.58801 16.682 7.73501Z" stroke="#5B6975" stroke-width="1.5" stroke-linecap="round" stroke-linejoin="round"/>
<path d="M11 13H5C3.895 13 3 12.105 3 11V5C3 3.895 3.895 3 5 3H19C20.105 3 21 3.895 21 5V8" stroke="#5B6975" stroke-width="1.5" stroke-linecap="round" stroke-linejoin="round"/>
<path d="M19.3928 15.696V13.962C19.3928 12.878 18.5138 11.999 17.4298 11.999C16.3458 11.999 15.4668 12.878 15.4668 13.962V15.696" stroke="#5B6975" stroke-width="1.5" stroke-linecap="round" stroke-linejoin="round"/>
<path d="M20 15.698H15C14.448 15.698 14 16.146 14 16.698V20C14 20.552 14.448 21 15 21H20C20.552 21 21 20.552 21 20V16.698C21 16.145 20.552 15.698 20 15.698Z" stroke="#5B6975" stroke-width="1.5" stroke-linecap="round" stroke-linejoin="round"/>
</svg>
