<svg width="19" height="20" viewBox="0 0 19 20" fill="none" xmlns="http://www.w3.org/2000/svg">
<path fill-rule="evenodd" clip-rule="evenodd" d="M9.46591 0C4.45278 0 0.375 4.03793 0.375 8.99984L0.426516 16.9997C0.673991 18.6907 2.13359 19.9996 3.91035 19.9996C5.09621 19.9996 6.0053 19.5826 6.60934 18.8257C6.98499 19.199 7.43162 19.4951 7.92346 19.6966C8.4153 19.8982 8.9426 20.0013 9.47492 20C10.0072 19.9987 10.534 19.893 11.0248 19.689C11.5157 19.4851 11.9608 19.1869 12.3346 18.8117C12.9417 19.5736 13.8538 19.9996 15.0215 19.9996C16.971 19.9996 18.5568 18.4297 18.5568 16.4997V8.99984C18.5568 4.03793 14.479 0 9.46591 0ZM6.29839 10.9661C7.52569 10.9661 8.52062 9.97122 8.52062 8.74392C8.52062 7.51662 7.52569 6.5217 6.29839 6.5217C5.07109 6.5217 4.07617 7.51662 4.07617 8.74392C4.07617 9.97122 5.07109 10.9661 6.29839 10.9661ZM15.1871 8.74392C15.1871 9.97122 14.1922 10.9661 12.9649 10.9661C11.7376 10.9661 10.7427 9.97122 10.7427 8.74392C10.7427 7.51662 11.7376 6.5217 12.9649 6.5217C14.1922 6.5217 15.1871 7.51662 15.1871 8.74392Z" fill="#BDBDBD"/>
</svg>
